{
  "accessors": [
    {
      "bufferView": 1,
      "componentType": 5126,
      "count": 65532,
      "max": [
        1.662284016609192,
        1.121109962463379,
        7.268884181976318
      ],
      "min": [
        -4.071450233459473,
        -2.104192018508911,
        2.7899961471557617
      ],
      "type": "VEC3"
    },
    {
      "bufferView": 1,
      "byteOffset": 786384,
      "componentType": 5126,
      "count": 65532,
      "max": [
        0.9999998807907104,
        0.9999800324440002,
        0.9995283484458923
      ],
      "min": [
        -0.999948263168335,
        -0.9999998807907104,
        -0.9999483823776245
      ],
      "type": "VEC3"
    },
    {
      "bufferView": 0,
      "componentType": 5125,
      "count": 372933,
      "type": "SCALAR"
    },
    {
      "bufferView": 1,
      "byteOffset": 1572768,
      "componentType": 5126,
      "count": 65532,
      "max": [
        1.6521340608596802,
        1.0949269533157349,
        7.268884181976318
      ],
      "min": [
        -4.06672477722168,
        -2.104192018508911,
        2.790405750274658
      ],
      "type": "VEC3"
    },
    {
      "bufferView": 1,
      "byteOffset": 2359152,
      "componentType": 5126,
      "count": 65532,
      "max": [
        1.0,
        0.9999584555625916,
        0.9999510049819946
      ],
      "min": [
        -0.9998643398284912,
        -0.9999998807907104,
        -0.9999808669090271
      ],
      "type": "VEC3"
    },
    {
      "bufferView": 0,
      "byteOffset": 1491732,
      "componentType": 5125,
      "count": 365262,
      "type": "SCALAR"
    },
    {
      "bufferView": 1,
      "byteOffset": 3145536,
      "componentType": 5126,
      "count": 65532,
      "max": [
        1.5013359785079956,
        1.3903700113296509,
        9.7909517288208
      ],
      "min": [
        -3.4240059852600098,
        -1.5825430154800415,
        4.399325847625732
      ],
      "type": "VEC3"
    },
    {
      "bufferView": 1,
      "byteOffset": 3931920,
      "componentType": 5126,
      "count": 65532,
      "max": [
        0.9999452233314514,
        0.9999426007270813,
        1.0
      ],
      "min": [
        -0.9998959302902222,
        -0.9999819397926331,
        -0.9999976754188538
      ],
      "type": "VEC3"
    },
    {
      "bufferView": 0,
      "byteOffset": 2952780,
      "componentType": 5125,
      "count": 331842,
      "type": "SCALAR"
    },
    {
      "bufferView": 1,
      "byteOffset": 4718304,
      "componentType": 5126,
      "count": 65532,
      "max": [
        1.533619999885559,
        1.3894619941711426,
        9.85007095336914
      ],
      "min": [
        -2.4426939487457275,
        -1.5504230260849,
        6.539545059204102
      ],
      "type": "VEC3"
    },
    {
      "bufferView": 1,
      "byteOffset": 5504688,
      "componentType": 5126,
      "count": 65532,
      "max": [
        0.9999452233314514,
        0.9999865889549255,
        0.999968945980072
      ],
      "min": [
        -0.9998858571052551,
        -0.9999551177024841,
        -0.9999215006828308
      ],
      "type": "VEC3"
    },
    {
      "bufferView": 0,
      "byteOffset": 4280148,
      "componentType": 5125,
      "count": 342174,
      "type": "SCALAR"
    },
    {
      "bufferView": 1,
      "byteOffset": 6291072,
      "componentType": 5126,
      "count": 65532,
      "max": [
        1.533619999885559,
        1.3885550498962402,
        9.849969863891602
      ],
      "min": [
        -2.4274020195007324,
        -1.5827239751815796,
        2.367906332015991
      ],
      "type": "VEC3"
    },
    {
      "bufferView": 1,
      "byteOffset": 7077456,
      "componentType": 5126,
      "count": 65532,
      "max": [
        0.9999816417694092,
        0.9999822378158569,
        0.9999915957450867
      ],
      "min": [
        -0.9999662637710571,
        -0.9999896883964539,
        -0.9999895691871643
      ],
      "type": "VEC3"
    },
    {
      "bufferView": 0,
      "byteOffset": 5648844,
      "componentType": 5125,
      "count": 329421,
      "type": "SCALAR"
    },
    {
      "bufferView": 1,
      "byteOffset": 7863840,
      "componentType": 5126,
      "count": 65532,
      "max": [
        1.1144001483917236,
        1.61177396774292,
        4.539280891418457
      ],
      "min": [
        -1.8648899793624878,
        -1.0481359958648682,
        2.3673758506774902
      ],
      "type": "VEC3"
    },
    {
      "bufferView": 1,
      "byteOffset": 8650224,
      "componentType": 5126,
      "count": 65532,
      "max": [
        0.9999724626541138,
        0.999631941318512,
        0.9999793171882629
      ],
      "min": [
        -0.9999706745147705,
        -0.9999890923500061,
        -0.9999997019767761
      ],
      "type": "VEC3"
    },
    {
      "bufferView": 0,
      "byteOffset": 6966528,
      "componentType": 5125,
      "count": 372168,
      "type": "SCALAR"
    },
    {
      "bufferView": 1,
      "byteOffset": 9436608,
      "componentType": 5126,
      "count": 65532,
      "max": [
        4.72123908996582,
        2.2483599185943604,
        6.894297122955322
      ],
      "min": [
        -3.978930711746216,
        -4.720375061035156,
        -0.07525293529033661
      ],
      "type": "VEC3"
    },
    {
      "bufferView": 1,
      "byteOffset": 10222992,
      "componentType": 5126,
      "count": 65532,
      "max": [
        0.9999410510063171,
        1.0,
        0.9999620318412781
      ],
      "min": [
        -1.0,
        -0.9997950792312622,
        -1.0
      ],
      "type": "VEC3"
    },
    {
      "bufferView": 0,
      "byteOffset": 8455200,
      "componentType": 5125,
      "count": 374553,
      "type": "SCALAR"
    },
    {
      "bufferView": 1,
      "byteOffset": 11009376,
      "componentType": 5126,
      "count": 65532,
      "max": [
        4.720375061035156,
        4.721260070800781,
        9.847240447998047
      ],
      "min": [
        -4.721260070800781,
        -4.72123908996582,
        -0.07526683807373047
      ],
      "type": "VEC3"
    },
    {
      "bufferView": 1,
      "byteOffset": 11795760,
      "componentType": 5126,
      "count": 65532,
      "max": [
        1.0,
        1.0,
        1.0
      ],
      "min": [
        -1.0,
        -1.0,
        -1.0
      ],
      "type": "VEC3"
    },
    {
      "bufferView": 0,
      "byteOffset": 9953412,
      "componentType": 5125,
      "count": 321492,
      "type": "SCALAR"
    },
    {
      "bufferView": 1,
      "byteOffset": 12582144,
      "componentType": 5126,
      "count": 65532,
      "max": [
        1.4075199365615845,
        1.3750360012054443,
        12.885489463806152
      ],
      "min": [
        -6.178599834442139,
        -4.719758987426758,
        3.6500160694122314
      ],
      "type": "VEC3"
    },
    {
      "bufferView": 1,
      "byteOffset": 13368528,
      "componentType": 5126,
      "count": 65532,
      "max": [
        0.9996212720870972,
        0.9999501705169678,
        0.9997642636299133
      ],
      "min": [
        -0.9992623329162598,
        -0.9997779726982117,
        -0.9998733401298523
      ],
      "type": "VEC3"
    },
    {
      "bufferView": 0,
      "byteOffset": 11239380,
      "componentType": 5125,
      "count": 315312,
      "type": "SCALAR"
    },
    {
      "bufferView": 1,
      "byteOffset": 14154912,
      "componentType": 5126,
      "count": 65532,
      "max": [
        0.36438798904418945,
        -0.046647001057863235,
        12.500612258911133
      ],
      "min": [
        -6.141759872436523,
        -4.6246771812438965,
        1.9668108224868774
      ],
      "type": "VEC3"
    },
    {
      "bufferView": 1,
      "byteOffset": 14941296,
      "componentType": 5126,
      "count": 65532,
      "max": [
        0.9999932050704956,
        0.9999992251396179,
        0.9998039603233337
      ],
      "min": [
        -0.9999097585678101,
        -0.9999005198478699,
        -1.0
      ],
      "type": "VEC3"
    },
    {
      "bufferView": 0,
      "byteOffset": 12500628,
      "componentType": 5125,
      "count": 353619,
      "type": "SCALAR"
    },
    {
      "bufferView": 1,
      "byteOffset": 15727680,
      "componentType": 5126,
      "count": 65532,
      "max": [
        2.5853989124298096,
        0.8385419845581055,
        2.981069803237915
      ],
      "min": [
        -2.51213002204895,
        -1.4403419494628906,
        1.966655969619751
      ],
      "type": "VEC3"
    },
    {
      "bufferView": 1,
      "byteOffset": 16514064,
      "componentType": 5126,
      "count": 65532,
      "max": [
        0.9999932050704956,
        0.9999584555625916,
        0.999998152256012
      ],
      "min": [
        -0.9999821782112122,
        -0.9999056458473206,
        -1.0
      ],
      "type": "VEC3"
    },
    {
      "bufferView": 0,
      "byteOffset": 13915104,
      "componentType": 5125,
      "count": 373431,
      "type": "SCALAR"
    },
    {
      "bufferView": 1,
      "byteOffset": 17300448,
      "componentType": 5126,
      "count": 22178,
      "max": [
        2.466233015060425,
        0.83902907371521,
        8.525596618652344
      ],
      "min": [
        -2.470438003540039,
        -1.2951639890670776,
        1.9667799472808838
      ],
      "type": "VEC3"
    },
    {
      "bufferView": 1,
      "byteOffset": 17566584,
      "componentType": 5126,
      "count": 22178,
      "max": [
        1.0,
        0.9999927282333374,
        0.9999648928642273
      ],
      "min": [
        -1.0,
        -0.9999056458473206,
        -1.0
      ],
      "type": "VEC3"
    },
    {
      "bufferView": 0,
      "byteOffset": 15408828,
      "componentType": 5125,
      "count": 124977,
      "type": "SCALAR"
    }
  ],
  "asset": {
    "extras": {
      "author": "3d.impressoesltda (https://sketchfab.com/3d.impressoesltda)",
      "license": "CC-BY-4.0 (http://creativecommons.org/licenses/by/4.0/)",
      "source": "https://sketchfab.com/3d-models/little-rocket-raccoon-58fd080c63a44bf3844ccc667304928e",
      "title": "Little Rocket Raccoon"
    },
    "generator": "Sketchfab-15.24.0",
    "version": "2.0"
  },
  "bufferViews": [
    {
      "buffer": 0,
      "byteLength": 15908736,
      "name": "floatBufferViews",
      "target": 34963
    },
    {
      "buffer": 0,
      "byteLength": 17832720,
      "byteOffset": 15908736,
      "byteStride": 12,
      "name": "floatBufferViews",
      "target": 34962
    }
  ],
  "buffers": [
    {
      "byteLength": 33741456,
      "uri": "scene.bin"
    }
  ],
  "materials": [
    {
      "doubleSided": true,
      "name": "Scene_-_Root",
      "pbrMetallicRoughness": {
        "metallicFactor": 0.0,
        "roughnessFactor": 0.6
      }
    }
  ],
  "meshes": [
    {
      "name": "Object_0",
      "primitives": [
        {
          "attributes": {
            "NORMAL": 1,
            "POSITION": 0
          },
          "indices": 2,
          "material": 0,
          "mode": 4
        }
      ]
    },
    {
      "name": "Object_1",
      "primitives": [
        {
          "attributes": {
            "NORMAL": 4,
            "POSITION": 3
          },
          "indices": 5,
          "material": 0,
          "mode": 4
        }
      ]
    },
    {
      "name": "Object_2",
      "primitives": [
        {
          "attributes": {
            "NORMAL": 7,
            "POSITION": 6
          },
          "indices": 8,
          "material": 0,
          "mode": 4
        }
      ]
    },
    {
      "name": "Object_3",
      "primitives": [
        {
          "attributes": {
            "NORMAL": 10,
            "POSITION": 9
          },
          "indices": 11,
          "material": 0,
          "mode": 4
        }
      ]
    },
    {
      "name": "Object_4",
      "primitives": [
        {
          "attributes": {
            "NORMAL": 13,
            "POSITION": 12
          },
          "indices": 14,
          "material": 0,
          "mode": 4
        }
      ]
    },
    {
      "name": "Object_5",
      "primitives": [
        {
          "attributes": {
            "NORMAL": 16,
            "POSITION": 15
          },
          "indices": 17,
          "material": 0,
          "mode": 4
        }
      ]
    },
    {
      "name": "Object_6",
      "primitives": [
        {
          "attributes": {
            "NORMAL": 19,
            "POSITION": 18
          },
          "indices": 20,
          "material": 0,
          "mode": 4
        }
      ]
    },
    {
      "name": "Object_7",
      "primitives": [
        {
          "attributes": {
            "NORMAL": 22,
            "POSITION": 21
          },
          "indices": 23,
          "material": 0,
          "mode": 4
        }
      ]
    },
    {
      "name": "Object_8",
      "primitives": [
        {
          "attributes": {
            "NORMAL": 25,
            "POSITION": 24
          },
          "indices": 26,
          "material": 0,
          "mode": 4
        }
      ]
    },
    {
      "name": "Object_9",
      "primitives": [
        {
          "attributes": {
            "NORMAL": 28,
            "POSITION": 27
          },
          "indices": 29,
          "material": 0,
          "mode": 4
        }
      ]
    },
    {
      "name": "Object_10",
      "primitives": [
        {
          "attributes": {
            "NORMAL": 31,
            "POSITION": 30
          },
          "indices": 32,
          "material": 0,
          "mode": 4
        }
      ]
    },
    {
      "name": "Object_11",
      "primitives": [
        {
          "attributes": {
            "NORMAL": 34,
            "POSITION": 33
          },
          "indices": 35,
          "material": 0,
          "mode": 4
        }
      ]
    }
  ],
  "nodes": [
    {
      "children": [
        1
      ],
      "matrix": [
        1.0,
        0.0,
        0.0,
        0.0,
        0.0,
        2.220446049250313e-16,
        -1.0,
        0.0,
        0.0,
        1.0,
        2.220446049250313e-16,
        0.0,
        0.0,
        0.0,
        0.0,
        1.0
      ],
      "name": "Sketchfab_model"
    },
    {
      "children": [
        2,
        3,
        4,
        5,
        6,
        7,
        8,
        9,
        10,
        11,
        12,
        13
      ],
      "name": "Little Rocket Raccoon.stl.cleaner.materialmerger.gles"
    },
    {
      "mesh": 0,
      "name": "Object_2"
    },
    {
      "mesh": 1,
      "name": "Object_3"
    },
    {
      "mesh": 2,
      "name": "Object_4"
    },
    {
      "mesh": 3,
      "name": "Object_5"
    },
    {
      "mesh": 4,
      "name": "Object_6"
    },
    {
      "mesh": 5,
      "name": "Object_7"
    },
    {
      "mesh": 6,
      "name": "Object_8"
    },
    {
      "mesh": 7,
      "name": "Object_9"
    },
    {
      "mesh": 8,
      "name": "Object_10"
    },
    {
      "mesh": 9,
      "name": "Object_11"
    },
    {
      "mesh": 10,
      "name": "Object_12"
    },
    {
      "mesh": 11,
      "name": "Object_13"
    }
  ],
  "scene": 0,
  "scenes": [
    {
      "name": "Sketchfab_Scene",
      "nodes": [
        0
      ]
    }
  ]
}
